HIERARCHY
ROOT Hips
{
    OFFSET   0.000000   0.000000   0.000000
    CHANNELS 6 Xposition Yposition Zposition Zrotation Xrotation Yrotation
    JOINT Chest
    {
        OFFSET   0.000000   8.007230   0.000000
        CHANNELS 3 Zrotation Xrotation Yrotation
        JOINT Chest2
        {
            OFFSET   0.000000  22.077100   0.000000
            CHANNELS 3 Zrotation Xrotation Yrotation
            JOINT Neck
            {
                OFFSET   0.000000  23.255100   0.000000
                CHANNELS 3 Zrotation Xrotation Yrotation
                JOINT Head
                {
                    OFFSET   0.000000  14.370100   1.956600
                    CHANNELS 3 Zrotation Xrotation Yrotation
                    End Site
                    {
                        OFFSET   0.000000  19.566000   0.000000
                    }
                }
            }
            JOINT LeftCollar
            {
                OFFSET   3.911900  19.017000  -0.467063
                CHANNELS 3 Zrotation Xrotation Yrotation
                JOINT LeftShoulder
                {
                    OFFSET  10.383700   0.000000   0.000000
                    CHANNELS 3 Zrotation Xrotation Yrotation
                    JOINT LeftElbow
                    {
                        OFFSET  26.662100   0.001193   0.000980
                        CHANNELS 3 Zrotation Xrotation Yrotation
                        JOINT LeftWrist
                        {
                            OFFSET  28.869000  -0.000059  -0.000082
                            CHANNELS 3 Zrotation Xrotation Yrotation
                            JOINT LeftFinger0
                            {
                                OFFSET   2.044650  -2.323450   3.252850
                                CHANNELS 3 Zrotation Xrotation Yrotation
                                JOINT LeftFinger01
                                {
                                    OFFSET   3.088130   0.000000   0.000000
                                    CHANNELS 3 Zrotation Xrotation Yrotation
                                    JOINT LeftFinger02
                                    {
                                        OFFSET   2.639460   0.000000   0.000000
                                        CHANNELS 3 Zrotation Xrotation Yrotation
                                        End Site
                                        {
                                            OFFSET   2.582190   0.000000   0.000000
                                        }
                                    }
                                }
                            }
                            JOINT LeftFinger1
                            {
                                OFFSET   8.364480   0.000000   3.252850
                                CHANNELS 3 Zrotation Xrotation Yrotation
                                JOINT LeftFinger11
                                {
                                    OFFSET   4.646930   0.000000   0.000000
                                    CHANNELS 3 Zrotation Xrotation Yrotation
                                    JOINT LeftFinger12
                                    {
                                        OFFSET   2.323470   0.000000   0.000000
                                        CHANNELS 3 Zrotation Xrotation Yrotation
                                        End Site
                                        {
                                            OFFSET   2.273050   0.000000   0.000000
                                        }
                                    }
                                }
                            }
                            JOINT LeftFinger2
                            {
                                OFFSET   8.364490   0.000016   1.078090
                                CHANNELS 3 Zrotation Xrotation Yrotation
                                JOINT LeftFinger21
                                {
                                    OFFSET   5.111610   0.000000   0.000000
                                    CHANNELS 3 Zrotation Xrotation Yrotation
                                    JOINT LeftFinger22
                                    {
                                        OFFSET   2.788150   0.000016   0.000000
                                        CHANNELS 3 Zrotation Xrotation Yrotation
                                        End Site
                                        {
                                            OFFSET   2.727660   0.000000   0.000000
                                        }
                                    }
                                }
                            }
                            JOINT LeftFinger3
                            {
                                OFFSET   7.899780   0.000015  -1.078090
                                CHANNELS 3 Zrotation Xrotation Yrotation
                                JOINT LeftFinger31
                                {
                                    OFFSET   4.646930   0.000000   0.000000
                                    CHANNELS 3 Zrotation Xrotation Yrotation
                                    JOINT LeftFinger32
                                    {
                                        OFFSET   2.323470   0.000000   0.000000
                                        CHANNELS 3 Zrotation Xrotation Yrotation
                                        End Site
                                        {
                                            OFFSET   2.273050   0.000000   0.000000
                                        }
                                    }
                                }
                            }
                            JOINT LeftFinger4
                            {
                                OFFSET   7.435090   0.000000  -3.252850
                                CHANNELS 3 Zrotation Xrotation Yrotation
                                JOINT LeftFinger41
                                {
                                    OFFSET   3.717550   0.000000   0.000000
                                    CHANNELS 3 Zrotation Xrotation Yrotation
                                    JOINT LeftFinger42
                                    {
                                        OFFSET   1.858770   0.000000   0.000000
                                        CHANNELS 3 Zrotation Xrotation Yrotation
                                        End Site
                                        {
                                            OFFSET   1.818440   0.000000   0.000000
                                        }
                                    }
                                }
                            }
                        }
                    }
                }
            }
            JOINT RightCollar
            {
                OFFSET  -3.911910  19.017000  -0.467062
                CHANNELS 3 Zrotation Xrotation Yrotation
                JOINT RightShoulder
                {
                    OFFSET -10.383700   0.000014   0.000000
                    CHANNELS 3 Zrotation Xrotation Yrotation
                    JOINT RightElbow
                    {
                        OFFSET -26.662100   0.001225   0.001091
                        CHANNELS 3 Zrotation Xrotation Yrotation
                        JOINT RightWrist
                        {
                            OFFSET -28.869000  -0.000020  -0.000085
                            CHANNELS 3 Zrotation Xrotation Yrotation
                            JOINT RightFinger0
                            {
                                OFFSET  -2.044650  -2.323490   3.252850
                                CHANNELS 3 Zrotation Xrotation Yrotation
                                JOINT RightFinger01
                                {
                                    OFFSET  -3.088130   0.000000   0.000000
                                    CHANNELS 3 Zrotation Xrotation Yrotation
                                    JOINT RightFinger02
                                    {
                                        OFFSET  -2.639460   0.000000   0.000000
                                        CHANNELS 3 Zrotation Xrotation Yrotation
                                        End Site
                                        {
                                            OFFSET  -2.582190   0.000000   0.000000
                                        }
                                    }
                                }
                            }
                            JOINT RightFinger1
                            {
                                OFFSET  -8.364480   0.000000   3.252850
                                CHANNELS 3 Zrotation Xrotation Yrotation
                                JOINT RightFinger11
                                {
                                    OFFSET  -4.646930   0.000000   0.000000
                                    CHANNELS 3 Zrotation Xrotation Yrotation
                                    JOINT RightFinger12
                                    {
                                        OFFSET  -2.323470   0.000000   0.000000
                                        CHANNELS 3 Zrotation Xrotation Yrotation
                                        End Site
                                        {
                                            OFFSET  -2.273050   0.000000   0.000000
                                        }
                                    }
                                }
                            }
                            JOINT RightFinger2
                            {
                                OFFSET  -8.364480   0.000000   1.078090
                                CHANNELS 3 Zrotation Xrotation Yrotation
                                JOINT RightFinger21
                                {
                                    OFFSET  -5.111620   0.000000   0.000000
                                    CHANNELS 3 Zrotation Xrotation Yrotation
                                    JOINT RightFinger22
                                    {
                                        OFFSET  -2.788160   0.000000   0.000000
                                        CHANNELS 3 Zrotation Xrotation Yrotation
                                        End Site
                                        {
                                            OFFSET  -2.727660   0.000000   0.000000
                                        }
                                    }
                                }
                            }
                            JOINT RightFinger3
                            {
                                OFFSET  -7.899780   0.000000  -1.078090
                                CHANNELS 3 Zrotation Xrotation Yrotation
                                JOINT RightFinger31
                                {
                                    OFFSET  -4.646930   0.000000   0.000000
                                    CHANNELS 3 Zrotation Xrotation Yrotation
                                    JOINT RightFinger32
                                    {
                                        OFFSET  -2.323470   0.000000   0.000000
                                        CHANNELS 3 Zrotation Xrotation Yrotation
                                        End Site
                                        {
                                            OFFSET  -2.273050   0.000000   0.000000
                                        }
                                    }
                                }
                            }
                            JOINT RightFinger4
                            {
                                OFFSET  -7.435090   0.000000  -3.252850
                                CHANNELS 3 Zrotation Xrotation Yrotation
                                JOINT RightFinger41
                                {
                                    OFFSET  -3.717550   0.000000   0.000000
                                    CHANNELS 3 Zrotation Xrotation Yrotation
                                    JOINT RightFinger42
                                    {
                                        OFFSET  -1.858760   0.000000   0.000000
                                        CHANNELS 3 Zrotation Xrotation Yrotation
                                        End Site
                                        {
                                            OFFSET  -1.818440   0.000000   0.000000
                                        }
                                    }
                                }
                            }
                        }
                    }
                }
            }
        }
    }
    JOINT LeftHip
    {
        OFFSET   9.783030   0.000000   0.000000
        CHANNELS 3 Zrotation Xrotation Yrotation
        JOINT LeftKnee
        {
            OFFSET   0.000063 -41.789100   0.000608
            CHANNELS 3 Zrotation Xrotation Yrotation
            JOINT LeftAnkle
            {
                OFFSET   0.000048 -41.133200  -0.000184
                CHANNELS 3 Zrotation Xrotation Yrotation
                JOINT LeftToe
                {
                    OFFSET   0.000000  -6.358960  14.674500
                    CHANNELS 3 Zrotation Xrotation Yrotation
                    End Site
                    {
                        OFFSET   0.000000   0.000000   3.913200
                    }
                }
            }
        }
    }
    JOINT RightHip
    {
        OFFSET  -9.783030   0.000000   0.000000
        CHANNELS 3 Zrotation Xrotation Yrotation
        JOINT RightKnee
        {
            OFFSET   0.000071 -41.789100   0.001239
            CHANNELS 3 Zrotation Xrotation Yrotation
            JOINT RightAnkle
            {
                OFFSET   0.000037 -41.133200  -0.000166
                CHANNELS 3 Zrotation Xrotation Yrotation
                JOINT RightToe
                {
                    OFFSET   0.000000  -6.358960  14.674500
                    CHANNELS 3 Zrotation Xrotation Yrotation
                    End Site
                    {
                        OFFSET   0.000000   0.000000   3.913200
                    }
                }
            }
        }
    }
}
MOTION
Frames: 6
Frame Time:   0.016667
  0.427857  89.565600  -1.593270  -1.125030  -8.073790  -3.832830  -0.091579   5.143670   0.679424  -0.246175  10.285900   1.375510   0.725965  -1.104580   0.009485   1.194050  -2.238810   6.642730  -6.752040  -1.524900   3.197240 -72.037700  20.337400  -3.506110  -0.893161  -2.229640 -18.982600  16.877100  -8.956340   7.242870  36.849800  28.428500 -51.114200 -33.700800  -0.005287  -0.003479 -11.850400   0.002403  -0.036605 -33.891600   6.354230  -9.355700 -28.155300   0.017068  -0.002340 -19.724000   0.012010   0.001395 -28.658700  -2.262690   4.133110 -39.773800   0.032546   0.007774 -26.489400   0.017742   0.013552 -28.794200  -2.273600   4.127140 -43.317100   0.016079   0.001445 -28.846300   0.009864   0.004312 -33.053800  -2.573270   3.947450 -49.706900   0.011369   0.006025 -33.108400   0.004482   0.004977  12.018700   0.631778   7.783860  63.372600  26.495800   1.351890  -3.379780  -1.542700  13.822000 -12.971900  -9.865190  -4.231870 -35.370500  27.733000  58.099200  34.334600   0.004939  -0.003322  12.167300   0.011276  -0.012473  34.205800   9.873780  14.158700  28.991700  -0.001583   0.000074  20.294200  -0.000679  -0.000835  30.300500   3.733870   6.358880  45.761100   0.001571   0.008846  30.476800   0.000086   0.001518  28.607200   3.152570   5.758260  40.731100   0.000000   0.000743  27.126900   0.001207   0.006782  40.388100  -1.188900  -1.397700  60.604100   0.000116   0.006369  40.362300   0.000000   0.007111   0.731985  10.722700   4.927120   0.956571   0.427500   6.710530  -1.358580  -3.986840   2.327740   0.000000   0.000000  -0.000000  -0.515517   9.453240   0.184943  -0.024364   0.567711  -7.560730  -0.343547  -2.788670  -0.534826   0.000000   0.000000   0.000000
  0.441928  89.565600  -1.596400  -1.122980  -8.124140  -3.867520  -0.097183   5.181020   0.704170  -0.260268  10.360400   1.426010   0.714936  -1.113120   0.009492   1.175960  -2.256170   6.604140  -6.753970  -1.568830   3.136300 -72.021200  20.378100  -3.495450  -0.907164  -2.252040 -18.983000  16.868100  -8.947400   7.242690  36.823900  28.398600 -51.113000 -33.715200  -0.005303  -0.003496 -11.857500   0.002409  -0.041449 -33.904800   6.345360  -9.337690 -28.165000   0.025965  -0.013079 -19.724000   0.020053  -0.004779 -28.657400  -2.271790   4.149630 -39.790900   0.055431  -0.006216 -26.500800   0.036136   0.009475 -28.793100  -2.282480   4.143780 -43.317100   0.027364  -0.007928 -28.846500   0.018349   0.000197 -33.052400  -2.583370   3.963380 -49.703200   0.026627   0.001031 -33.108400   0.015027   0.005219  12.030800   0.545813   7.749530  63.265100  26.844300   1.755880  -3.405620  -1.463230  13.644300 -12.939600  -9.784200  -4.335380 -35.345900  27.781500  58.192100  34.375000   0.004925  -0.003289  12.187500   0.011283  -0.012483  34.187800   9.850130  14.135800  28.972400  -0.001580   0.000072  20.280700  -0.000672  -0.000845  30.276500   3.711570   6.327060  45.720900   0.001571   0.008841  30.450100   0.000043   0.001524  28.607000   3.138260   5.732370  40.664000   0.000000   0.000674  27.082300   0.001187   0.006770  40.371300  -1.184000  -1.392890  60.578900   0.000118   0.006380  40.345500   0.000000   0.007125   0.711548  10.777700   4.934740   0.956255   0.423006   6.716760  -1.350440  -3.985670   2.350260  -0.000000   0.000000   0.000000  -0.539279   9.460060   0.199253  -0.017517   0.610696  -7.582190  -0.332397  -2.786580  -0.489284   0.000000   0.000000   0.000000
  0.466763  89.565600  -1.602540  -1.124080  -8.217480  -3.931340  -0.106231   5.251100   0.748675  -0.283493  10.500300   1.516800   0.695743  -1.129470   0.009508   1.144440  -2.289360   6.536240  -6.759720  -1.648990   3.026090 -71.982700  20.461800  -3.481530  -0.933092  -2.299190 -18.984200  16.851600  -8.932710   7.242380  36.799900  28.361800 -51.125300 -33.736500  -0.005319  -0.003513 -11.868200   0.002416  -0.046293 -33.921700   6.336500  -9.319690 -28.177200   0.034861  -0.028800 -19.724000   0.028097  -0.014289 -28.656000  -2.280890   4.166160 -39.818000   0.078316  -0.026559 -26.518800   0.054529   0.001885 -28.792100  -2.291350   4.160420 -43.317100   0.039318  -0.022291 -28.846700   0.029223  -0.006711 -33.051000  -2.593470   3.979300 -49.699500   0.048320  -0.007633 -33.108400   0.030557   0.005461  12.051200   0.398092   7.698180  63.051000  27.465400   2.454500  -3.461860  -1.291780  13.466200 -12.894300  -9.653920  -4.501530 -35.321500  27.829800  58.285200  34.459400   0.004911  -0.003255  12.229700   0.011290  -0.012506  34.167900   9.778240  14.047900  28.941800  -0.001566   0.000070  20.259300  -0.000659  -0.000866  30.237200   3.649840   6.232350  45.651100   0.001574   0.008830  30.403600   0.000000   0.001535  28.609000   3.092360   5.648650  40.559100   0.000000   0.000606  27.012400   0.001166   0.006736  40.329300  -1.171650  -1.380410  60.515400   0.000128   0.006405  40.303300   0.000000   0.007157   0.679074  10.874400   4.947420   0.955891   0.418506   6.729670  -1.335870  -3.984440   2.390720  -0.000000   0.000000   0.000000  -0.578130   9.495790   0.220316  -0.006817   0.653651  -7.620320  -0.311051  -2.784500  -0.402310  -0.000000   0.000000   0.000000
  0.489248  89.565600  -1.609260  -1.134720  -8.310290  -3.994930  -0.112438   5.322330   0.790690  -0.300899  10.642600   1.602360   0.678793  -1.146850   0.009530   1.116610  -2.324410   6.474640  -6.769340  -1.726810   2.919900 -71.929600  20.559700  -3.478350  -0.959903  -2.355780 -18.987000  16.835500  -8.921920   7.241580  36.797400  28.365700 -51.174000 -33.748300  -0.005317  -0.003506 -11.874100   0.002404  -0.037345 -33.924500   6.345510  -9.330350 -28.180200   0.033170  -0.037988 -19.722400   0.027669  -0.020590 -28.656800  -2.275520   4.156250 -39.841100   0.073436  -0.037983 -26.534200   0.053498  -0.008093 -28.791900  -2.285760   4.150620 -43.314400   0.040098  -0.032876 -28.846000   0.032010  -0.013768 -33.051800  -2.587600   3.969610 -49.706100   0.058798  -0.017315 -33.108600   0.039958   0.005401  12.068700   0.272945   7.664320  62.821900  28.045800   3.063330  -3.562720  -1.085660  13.480400 -12.873200  -9.558050  -4.624380 -35.278400  27.780800  58.087900  34.573800   0.004928  -0.003300  12.286900   0.011278  -0.012537  34.160600   9.641400  13.864000  28.915700  -0.001535   0.000075  20.241000  -0.000651  -0.000891  30.193800   3.539700   6.056710  45.572500   0.001582   0.008812  30.351300   0.000113   0.001551  28.615200   3.002930   5.484970  40.474500   0.000000   0.000890  26.956100   0.001177   0.006676  40.245100  -1.146690  -1.354520  60.388000   0.000149   0.006440  40.218400   0.000026   0.007200   0.657137  10.959700   4.957040   0.956046   0.429816   6.745390  -1.322320  -3.986750   2.429430  -0.000000   0.000000  -0.000000  -0.607431   9.578980   0.233002   0.004525   0.653322  -7.655480  -0.288368  -2.785500  -0.310494   0.000000   0.000000   0.000000
  0.513969  89.565600  -1.617410  -1.150200  -8.417630  -4.065910  -0.119076   5.405510   0.837496  -0.320069  10.808700   1.697740   0.660652  -1.167140   0.009561   1.086800  -2.365440   6.408310  -6.782430  -1.814650   2.803030 -71.861400  20.681100  -3.479960  -0.988614  -2.427590 -18.990500  16.817700  -8.910530   7.238170  36.791700  28.380200 -51.226500 -33.756700  -0.005298  -0.003481 -11.878400   0.002381  -0.024321 -33.922900   6.354840  -9.345690 -28.180600   0.029018  -0.042195 -19.719800   0.025425  -0.025297 -28.658000  -2.267530   4.141430 -39.854100   0.061994  -0.043054 -26.542900   0.048222  -0.014558 -28.789300  -2.277360   4.136050 -43.307400   0.040209  -0.038471 -28.842700   0.032409  -0.018032 -33.052800  -2.578770   3.955330 -49.712800   0.062841  -0.023328 -33.108800   0.044372   0.004977  12.087300   0.137835   7.647490  62.541800  28.682900   3.699210  -3.722000  -0.809856  13.586300 -12.869700  -9.470860  -4.733380 -35.212200  27.667900  57.701800  34.685900   0.004945  -0.003346  12.343000   0.011266  -0.012576  34.189000   9.486950  13.639900  28.900900  -0.001498   0.000083  20.230700  -0.000637  -0.000926  30.176200   3.418290   5.855910  45.523600   0.001594   0.008792  30.318700   0.000347   0.001569  28.624100   2.899700   5.295710  40.427900   0.000000   0.002067  26.925000   0.001252   0.006606  40.186100  -1.129200  -1.336300  60.298700   0.000176   0.006484  40.159000   0.000072   0.007258   0.635762  11.057000   4.967540   0.955421   0.447463   6.764060  -1.306990  -3.990040   2.471220  -0.000000   0.000000  -0.000000  -0.636266   9.684520   0.238972   0.017536   0.652988  -7.694240  -0.261923  -2.786490  -0.203365  -0.000000   0.000000   0.000000
  0.541195  89.565600  -1.627230  -1.167840  -8.540310  -4.142790  -0.127461   5.501200   0.889282  -0.343538  10.999800   1.803480   0.641502  -1.190230   0.009606   1.055340  -2.412590   6.337090  -6.798900  -1.912200   2.677430 -71.776400  20.826000  -3.493070  -1.018560  -2.514810 -18.994200  16.798400  -8.895370   7.230240  36.791200  28.386600 -51.248400 -33.760700  -0.005232  -0.003428 -11.880400   0.002359  -0.018081 -33.914700   6.355170  -9.353880 -28.174300   0.022141  -0.035629 -19.717700   0.019748  -0.027294 -28.658700  -2.262480   4.131720 -39.852300   0.040733  -0.032760 -26.541600   0.032273  -0.012233 -28.781900  -2.271690   4.126740 -43.295500   0.033194  -0.032774 -28.834900   0.027129  -0.016106 -33.046700  -2.572830   3.946680 -49.703100   0.050916  -0.021168 -33.102300   0.036647   0.003159  12.106300  -0.012356   7.648110  62.206300  29.367300   4.347570  -3.927870  -0.446486  13.876500 -12.919900  -9.379820  -4.822940 -35.183100  27.434500  57.188500  34.760000   0.004944  -0.003345  12.380100   0.011266  -0.012626  34.298500   9.335800  13.391200  28.950500  -0.001467   0.000086  20.265400  -0.000607  -0.000977  30.237900   3.306160   5.647860  45.594700   0.001608   0.008778  30.366100   0.000635   0.001588  28.639900   2.791870   5.096760  40.589900   0.000000   0.004658  27.032900   0.001738   0.006534  40.216500  -1.138180  -1.345410  60.344700   0.000209   0.006537  40.189600   0.000114   0.007332   0.612197  11.166900   4.980080   0.953557   0.461478   6.784760  -1.289640  -3.991460   2.514750   0.000000   0.000000   0.000000  -0.666712   9.792360   0.238983   0.029936   0.658379  -7.736900  -0.232089  -2.785780  -0.081197   0.000000   0.000000   0.000000
